<svg xmlns="http://www.w3.org/2000/svg" width="256" height="256" viewBox="0 0 256 256" role="img" aria-label="NBA Props Tracker icon">
  <defs>
    <linearGradient id="bg" x1="0" y1="0" x2="1" y2="1">
      <stop offset="0%" stop-color="#14233f"/>
      <stop offset="100%" stop-color="#0a1324"/>
    </linearGradient>
    <linearGradient id="accent" x1="0" y1="0" x2="1" y2="1">
      <stop offset="0%" stop-color="#4da3ff"/>
      <stop offset="100%" stop-color="#8b6dff"/>
    </linearGradient>
  </defs>
  <rect x="10" y="10" width="236" height="236" rx="56" fill="url(#bg)"/>
  <rect x="10" y="10" width="236" height="236" rx="56" fill="none" stroke="rgba(255,255,255,0.12)"/>
  <circle cx="88" cy="134" r="40" fill="none" stroke="#f59f28" stroke-width="10"/>
  <path d="M88 94v80M48 134h80M61 109c18 8 36 8 54 0M61 159c18-8 36-8 54 0" stroke="#f59f28" stroke-width="6" fill="none" stroke-linecap="round"/>
  <path d="M136 164l26-28 24 16 28-44" fill="none" stroke="url(#accent)" stroke-width="14" stroke-linecap="round" stroke-linejoin="round"/>
  <circle cx="136" cy="164" r="8" fill="#4da3ff"/>
  <circle cx="162" cy="136" r="8" fill="#5a8cff"/>
  <circle cx="186" cy="152" r="8" fill="#6f7eff"/>
  <circle cx="214" cy="108" r="8" fill="#8b6dff"/>
</svg>